<svg width="400" height="123" viewBox="0 0 400 123" fill="none" xmlns="http://www.w3.org/2000/svg">
<path d="M45.5348 37.996C44.0224 43.8416 42.1318 49.9036 39.8632 56.1822C37.7026 62.4607 35.434 68.4145 33.0573 74.0436C32.9493 74.2601 32.6792 74.8013 32.2471 75.6673C31.8149 76.4251 31.4908 76.7498 31.2748 76.6416C30.9507 76.6416 30.7886 76.2086 30.7886 75.3426C30.8967 74.3683 31.0047 73.7188 31.1127 73.3941C31.2208 72.095 31.4368 70.4713 31.7609 68.5228C32.085 66.5743 32.4091 64.5716 32.7332 62.5148C33.1653 60.4581 33.5974 58.4554 34.0296 56.5069C34.5697 54.5584 35.0559 52.8805 35.488 51.4733C35.704 51.0403 36.0281 49.9578 36.4602 48.2257C36.8924 46.4937 37.3245 44.437 37.7566 42.0554C38.2968 39.5657 38.8369 36.8594 39.3771 33.9366C39.9172 31.0139 40.4034 28.1452 40.8355 25.3307L38.8909 24.8436C38.3508 28.6323 37.5405 32.5294 36.4602 36.5346C35.488 40.4317 34.3537 44.3828 33.0573 48.3881C31.869 52.2851 30.6806 56.2904 29.4923 60.404C28.304 64.4092 27.2237 68.4145 26.2514 72.4198C25.3871 76.2086 24.739 80.1597 24.3068 84.2733C23.8747 88.3868 23.7127 92.5545 23.8207 96.7762C23.9287 100.89 24.4149 104.949 25.2791 108.954C26.1433 112.851 27.4397 116.478 29.1682 119.834C29.4923 120.591 29.6003 120.97 29.4923 120.97C29.2762 120.97 29.1142 120.916 29.0062 120.808L28.6821 120.483C25.6572 116.911 23.3886 113.068 21.8761 108.954C20.4718 104.733 19.5535 100.403 19.1214 95.9643C18.7973 91.5261 18.9053 87.0337 19.4455 82.4871C19.9856 77.9406 20.7418 73.5023 21.7141 69.1723C23.5506 61.1617 25.7112 53.4759 28.1959 46.1148C30.6806 38.6455 32.7872 31.3386 34.5157 24.1941C28.0339 23.1115 21.9302 22.1373 16.2046 21.2713C10.587 20.297 5.3475 20.297 0.486137 21.2713C0.162046 21.2713 0 21.2172 0 21.1089C0 20.8924 0.0540151 20.7842 0.162046 20.7842C0.378106 20.6759 0.540152 20.5677 0.648182 20.4594C4.32121 18.2944 8.21031 17.1036 12.3155 16.8871C16.5286 16.6706 20.8499 16.8871 25.2791 17.5366C29.8164 18.0779 34.4077 18.8356 39.053 19.8099C43.8063 20.6759 48.5596 21.163 53.313 21.2713C56.2298 21.3795 59.2547 21.163 62.3875 20.6218C65.6284 19.9723 68.7073 19.0521 71.6241 17.8614C74.649 16.5624 77.3497 14.8845 79.7264 12.8277C82.2111 10.771 84.2097 8.33531 85.7221 5.5208C85.9382 4.97954 86.1542 4.70891 86.3703 4.70891V5.19604V5.5208C85.1819 9.63433 83.3454 13.0442 80.8607 15.7505C78.376 18.3485 75.5132 20.4594 72.2723 22.0832C69.1394 23.7069 65.7365 24.8436 62.0634 25.4931C58.4984 26.0343 54.9875 26.2508 51.5305 26.1426C52.0706 29.4984 52.0706 33.3954 51.5305 37.8337C51.0984 42.2719 50.3962 46.7644 49.4239 51.3109C48.4516 55.8574 47.4253 60.1874 46.345 64.301C45.2647 68.3063 44.4005 71.5538 43.7523 74.0436C42.4559 79.2396 40.9435 84.5439 39.215 89.9564C37.4865 95.369 35.9201 100.132 34.5157 104.246C34.2996 104.787 34.0296 105.274 33.7055 105.707C33.4894 106.14 33.2733 106.302 33.0573 106.194C32.8412 106.086 32.7332 105.815 32.7332 105.382C32.8412 104.841 32.8952 104.3 32.8952 103.758C33.2193 95.6396 34.4077 87.5208 36.4602 79.402C38.5128 71.2832 40.7274 63.1102 43.1041 54.8832C44.4005 50.3366 45.6428 45.736 46.8312 41.0812C48.1275 36.4264 49.0458 31.4469 49.5859 26.1426C49.0458 26.0343 48.5596 25.9802 48.1275 25.9802C47.8034 25.9802 47.3713 25.9802 46.8312 25.9802C46.8312 28.1452 46.7231 30.2561 46.5071 32.3129C46.399 34.3696 46.0749 36.264 45.5348 37.996ZM49.91 3.4099C54.1232 3.95116 58.3904 4.38416 62.7116 4.70891C67.0328 5.03366 70.7599 5.19604 73.8928 5.19604C74.9731 5.19604 75.5132 5.35842 75.5132 5.68317C75.5132 6.11618 74.9731 6.49505 73.8928 6.8198C68.3832 8.98482 62.5496 9.95908 56.3918 9.74257C50.3421 9.52607 44.1844 8.9307 37.9187 7.95644C34.1376 7.41518 30.2485 6.87393 26.2514 6.33268C22.2543 5.79142 17.933 5.79142 13.2877 6.33268C12.8556 6.44093 12.6396 6.3868 12.6396 6.17029C12.6396 5.95379 12.7476 5.79142 12.9636 5.68317C13.1797 5.57492 13.3958 5.41254 13.6118 5.19604C15.6644 3.68053 18.3111 2.70627 21.5521 2.27327C24.793 1.73201 28.1419 1.51551 31.5989 1.62376C35.1639 1.62376 38.5668 1.84026 41.8077 2.27327C45.0487 2.70627 47.7494 3.08515 49.91 3.4099ZM25.6032 8.44356C30.1405 9.09307 34.7318 9.90495 39.3771 10.8792C44.1304 11.8535 48.7217 12.936 53.1509 14.1267C53.367 14.3432 53.7991 14.5597 54.4473 14.7762C55.2035 14.8845 55.5816 15.101 55.5816 15.4257C55.5816 15.6422 55.2575 15.8046 54.6093 15.9129C53.9612 16.0211 53.475 16.1835 53.1509 16.4C52.1787 16.6165 50.9363 16.7247 49.4239 16.7247C48.0195 16.7247 46.5071 16.7247 44.8866 16.7247C43.3742 16.6165 41.8618 16.5082 40.3493 16.4C38.8369 16.2917 37.5405 16.1294 36.4602 15.9129C35.704 15.8046 33.8135 15.5881 30.7886 15.2634C27.8718 14.9386 24.6309 14.7221 21.0659 14.6139C17.5009 14.5056 14.0439 14.5597 10.695 14.7762C7.45409 14.8845 5.13144 15.3175 3.72705 16.0753C3.29493 16.2918 3.02485 16.4 2.91682 16.4H2.75477C2.75477 15.967 2.97083 15.534 3.40296 15.101C4.48326 13.6937 5.94167 12.503 7.77819 11.5287C9.72273 10.5545 11.7213 9.7967 13.7739 9.25544C15.8264 8.71419 17.879 8.38943 19.9316 8.28119C22.0922 8.17294 23.9827 8.22706 25.6032 8.44356ZM30.9507 108.954C31.2748 110.795 31.6529 112.635 32.085 114.475C32.6252 116.316 33.2733 118.102 34.0296 119.834C34.4617 120.7 34.5157 121.133 34.1916 121.133C33.9755 121.133 33.6515 121.024 33.2193 120.808C33.0033 120.7 32.8412 120.537 32.7332 120.321C31.3288 118.697 30.1945 117.182 29.3302 115.774C28.574 114.367 27.9258 112.094 27.3857 108.954C27.1696 107.764 27.0076 106.248 26.8996 104.408C26.8996 102.568 26.9536 100.782 27.0616 99.0495C27.1696 97.3175 27.3317 95.8561 27.5477 94.6653C27.7638 93.4746 28.0879 92.8792 28.52 92.8792C28.628 92.8792 28.7361 93.1498 28.8441 93.6911C29.0602 94.2323 29.2222 94.8818 29.3302 95.6396C29.4383 96.2891 29.5463 96.9927 29.6543 97.7505C29.7624 98.4 29.8164 98.833 29.8164 99.0495C30.0324 100.89 30.1945 102.622 30.3025 104.246C30.5186 105.869 30.7346 107.439 30.9507 108.954ZM77.9439 7.30693C80.3206 5.25017 82.3191 3.03103 83.9396 0.649506C84.1556 0.216502 84.3717 0 84.5878 0C84.6958 0 84.7498 0.378879 84.7498 1.13664C84.7498 1.56964 84.6958 1.94852 84.5878 2.27327C84.1556 4.11353 83.6695 5.57492 83.1294 6.65743C82.5892 7.73993 81.2928 9.03894 79.2403 10.5545C78.4841 11.204 77.4578 11.8535 76.1614 12.503C74.865 13.0442 73.6227 13.5314 72.4344 13.9644C71.246 14.3974 70.1657 14.668 69.1934 14.7762C68.3292 14.7762 67.8431 14.5597 67.735 14.1267C67.735 14.0185 67.8971 13.8561 68.2212 13.6396C68.5453 13.3149 68.9234 12.9901 69.3555 12.6653C69.8956 12.3406 70.3818 12.07 70.8139 11.8535C71.246 11.5287 71.5701 11.3122 71.7862 11.204C72.8665 10.6627 73.8928 10.0673 74.865 9.41782C75.9453 8.76832 76.9716 8.06468 77.9439 7.30693Z" fill="#0E488D"/>
<path d="M160.287 47.5762C160.287 52.5558 159.801 57.8601 158.829 63.4891C157.964 69.0099 156.56 74.4766 154.615 79.8891C152.779 85.3016 150.456 90.4436 147.648 95.3148C144.839 100.186 141.49 104.516 137.601 108.305C133.82 111.985 129.498 114.962 124.637 117.236C119.776 119.401 114.428 120.483 108.595 120.483C103.193 120.483 98.4937 118.914 94.4966 115.774C90.6075 112.527 87.4206 108.305 84.9359 103.109C82.5592 97.9129 80.8848 91.9591 79.9125 85.2475C79.0483 78.536 78.9402 71.7162 79.5884 64.7881C80.2366 57.8601 81.587 51.0403 83.6396 44.3287C85.8002 37.6172 88.717 31.6634 92.39 26.4673C96.063 21.2713 100.492 17.1036 105.678 13.9644C110.863 10.7168 116.805 9.09307 123.503 9.09307C128.796 9.09307 133.225 10.2838 136.79 12.6653C140.355 15.0469 143.218 18.0779 145.379 21.7584C147.648 25.4389 149.268 29.5525 150.24 34.099C151.213 38.5373 151.699 42.8673 151.699 47.0891C151.699 52.1769 151.267 57.1564 150.402 62.0277C149.538 66.7907 148.026 71.4455 145.865 75.9921C145.217 77.5076 144.839 78.0488 144.731 77.6158C144.731 77.0746 144.839 76.3168 145.055 75.3426C145.811 71.4455 146.459 67.6026 146.999 63.8139C147.648 59.9168 147.972 55.9657 147.972 51.9604C147.972 48.1716 147.594 44.0581 146.837 39.6198C146.081 35.1815 144.785 31.068 142.948 27.2792C141.112 23.4904 138.573 20.3512 135.332 17.8614C132.091 15.2634 127.986 13.9644 123.017 13.9644C118.803 13.9644 114.86 14.7762 111.187 16.4C107.514 18.0238 104.165 20.1888 101.14 22.8951C98.2236 25.6013 95.6309 28.7947 93.3623 32.4752C91.0936 36.0475 89.1491 39.7822 87.5286 43.6792C86.2323 46.9267 85.152 51.0403 84.2877 56.0198C83.4235 60.8911 82.9374 66.033 82.8293 71.4455C82.7213 76.8581 83.0454 82.3247 83.8016 87.8455C84.5578 93.3663 85.9622 98.2917 88.0148 102.622C90.0674 106.952 92.7681 110.524 96.1171 113.339C99.466 116.045 103.679 117.398 108.757 117.398C114.05 117.398 119.074 115.937 123.827 113.014C128.58 109.983 132.847 106.248 136.628 101.81C140.518 97.2634 143.812 92.4462 146.513 87.3584C149.214 82.1624 151.159 77.3452 152.347 72.9069C153.427 69.0099 154.237 64.6799 154.778 59.9168C155.426 55.0455 155.588 50.1743 155.264 45.303C155.048 40.3234 154.291 35.5063 152.995 30.8515C151.807 26.1967 149.97 22.0832 147.485 18.5109C145.001 14.8304 141.814 11.9076 137.925 9.74257C134.144 7.46931 129.498 6.33268 123.989 6.33268C115.779 6.33268 108.703 8.38944 102.761 12.503C96.8193 16.6165 91.9039 21.8125 88.0148 28.0911C84.2337 34.3696 81.4249 41.2977 79.5884 48.8752C77.7519 56.4528 76.8336 63.7056 76.8336 70.6337C76.8336 73.8812 77.0497 77.1828 77.4818 80.5386C77.9139 83.7861 78.238 86.4924 78.4541 88.6574C78.5621 89.5234 78.4541 90.0106 78.13 90.1188C77.9139 90.1188 77.6439 89.6858 77.3198 88.8198C76.8877 87.4125 76.5095 85.7888 76.1855 83.9485C75.8614 82 75.5373 79.9973 75.2132 77.9406C74.9971 75.7756 74.7811 73.6647 74.565 71.6079C74.457 69.4429 74.403 67.4403 74.403 65.6C74.403 58.0224 75.3752 50.4449 77.3198 42.8673C79.3723 35.1815 82.4512 28.3076 86.5564 22.2455C90.6615 16.1835 95.847 11.2581 102.113 7.46931C108.487 3.57228 115.995 1.62376 124.637 1.62376C131.119 1.62376 136.628 3.08515 141.166 6.00792C145.703 8.93069 149.376 12.6653 152.185 17.2119C155.102 21.6502 157.154 26.5756 158.343 31.9881C159.639 37.4007 160.287 42.5967 160.287 47.5762ZM145.055 49.0376C145.055 53.6924 144.515 58.6178 143.434 63.8139C142.354 68.9016 140.734 73.9353 138.573 78.9148C136.52 83.7861 133.982 88.3868 130.957 92.7168C127.932 96.9386 124.475 100.565 120.586 103.596C118.749 105.003 116.751 106.194 114.59 107.168C112.538 108.143 110.269 108.63 107.784 108.63C105.624 108.63 103.787 108.197 102.275 107.331C100.87 106.356 99.628 105.057 98.5477 103.434C97.6835 102.243 97.4134 101.648 97.7375 101.648C98.0616 101.648 98.6558 102.081 99.52 102.947C100.492 103.813 101.465 104.57 102.437 105.22C103.409 105.869 104.705 106.194 106.326 106.194C109.351 106.194 112.214 105.166 114.914 103.109C117.723 100.944 120.046 98.7789 121.882 96.6139C124.691 93.5828 127.176 90.2271 129.336 86.5465C131.497 82.7577 133.28 78.8607 134.684 74.8554C136.196 70.7419 137.331 66.6284 138.087 62.5148C138.843 58.2931 139.221 54.1254 139.221 50.0119C139.221 47.3056 138.951 44.3287 138.411 41.0812C137.979 37.8337 137.061 34.8026 135.656 31.9881C134.36 29.0653 132.523 26.6297 130.147 24.6812C127.878 22.7327 124.907 21.7584 121.234 21.7584C117.237 21.7584 113.672 22.6244 110.539 24.3564C107.406 26.0884 104.597 28.3076 102.113 31.0139C99.628 33.6119 97.3594 36.5888 95.3068 39.9446C93.3623 43.1921 91.5258 46.3855 89.7973 49.5248C89.4732 50.1743 89.2031 50.5531 88.9871 50.6614C88.879 50.7696 88.825 50.7155 88.825 50.499C88.717 50.2825 88.717 49.9578 88.825 49.5248C90.0133 45.5195 91.6338 41.5683 93.6864 37.6713C95.739 33.7743 98.1696 30.3102 100.978 27.2792C103.895 24.2482 107.136 21.8125 110.701 19.9723C114.266 18.0238 118.155 17.0495 122.368 17.0495C126.366 17.0495 129.823 18.132 132.739 20.297C135.656 22.462 137.979 25.1683 139.707 28.4158C141.544 31.5551 142.894 35.0191 143.758 38.8079C144.623 42.4885 145.055 45.8983 145.055 49.0376ZM115.725 112.527C113.24 113.826 110.593 114.475 107.784 114.475C103.895 114.475 100.546 113.393 97.7375 111.228C94.9287 109.063 92.5521 106.411 90.6075 103.271C88.771 100.132 87.4206 96.7221 86.5564 93.0416C85.6921 89.361 85.26 85.9511 85.26 82.8119C85.26 82.1624 85.314 81.1881 85.422 79.8891C85.5301 78.5901 85.6381 77.3452 85.7461 76.1545C85.9622 74.8554 86.1783 73.7188 86.3943 72.7446C86.7184 71.7703 87.0965 71.2832 87.5286 71.2832C87.9608 71.2832 88.1228 72.1492 88.0148 73.8812C88.0148 75.5049 88.1228 77.8323 88.3389 80.8634C88.4469 83.2449 88.933 86.2218 89.7973 89.7941C90.6615 93.3663 91.9039 96.8304 93.5243 100.186C95.1448 103.434 97.1433 106.248 99.52 108.63C101.897 111.011 104.651 112.202 107.784 112.202C110.485 112.202 112.916 111.985 115.076 111.552C116.157 111.336 116.967 111.228 117.507 111.228C118.047 111.228 117.453 111.661 115.725 112.527Z" fill="#0E488D"/>
<path d="M244.725 63.9762C244.617 64.301 244.401 64.734 244.077 65.2752C243.861 65.8165 243.591 66.4119 243.267 67.0614C242.943 67.6026 242.619 68.0898 242.295 68.5228C241.971 68.8475 241.755 68.9558 241.647 68.8475C241.647 68.8475 241.701 68.5769 241.809 68.0356C241.917 67.4944 242.025 66.899 242.133 66.2495C242.349 65.6 242.511 65.0046 242.619 64.4634C242.835 63.8139 242.943 63.3808 242.943 63.1643C244.563 54.5043 244.563 47.035 242.943 40.7564C241.323 34.4779 238.568 29.336 234.679 25.3307C230.898 21.3254 226.198 18.3485 220.581 16.4C215.071 14.4515 209.237 13.4231 203.08 13.3149C198.651 13.3149 194.275 13.6937 189.954 14.4515C185.741 15.101 181.852 15.967 178.287 17.0495C174.83 18.132 171.859 19.3228 169.374 20.6218C166.998 21.9208 165.485 23.1657 164.837 24.3564C164.081 25.6554 163.865 25.4931 164.189 23.8693C165.053 21.0548 167.322 18.4568 170.995 16.0753C174.776 13.6937 179.151 11.7452 184.12 10.2297C189.09 8.71419 194.275 7.73994 199.677 7.30693C205.186 6.76568 210.156 7.03631 214.585 8.11881C217.502 8.76832 220.419 9.68845 223.335 10.8792C226.252 12.07 229.007 13.5314 231.6 15.2634C234.301 16.8871 236.731 18.8898 238.892 21.2713C241.16 23.5446 243.051 26.1967 244.563 29.2277C247.48 35.0733 248.885 41.1353 248.777 47.4139C248.777 53.5842 247.426 59.1049 244.725 63.9762ZM255.258 62.8396C253.206 68.9016 250.451 74.3683 246.994 79.2396C243.645 84.1109 240.026 88.495 236.137 92.3921C232.248 96.1809 228.251 99.4825 224.146 102.297C220.041 105.112 216.205 107.493 212.64 109.442C211.56 109.983 210.642 110.416 209.886 110.741C209.129 111.065 208.751 111.119 208.751 110.903C208.535 110.795 208.805 110.47 209.562 109.929C210.426 109.279 211.29 108.63 212.154 107.98C218.204 103.109 224.038 97.967 229.655 92.5544C235.381 87.1419 240.512 80.9716 245.05 74.0436C247.318 70.4713 249.047 66.5742 250.235 62.3525C251.423 58.0224 252.018 53.5842 252.018 49.0376C252.018 44.4911 251.369 39.9987 250.073 35.5604C248.885 31.1221 246.994 27.0086 244.401 23.2198C240.944 18.2403 236.731 14.2891 231.762 11.3663C226.9 8.44356 221.661 6.44092 216.043 5.35841C210.426 4.16766 204.646 3.78878 198.705 4.22179C192.763 4.65479 187.037 5.68317 181.528 7.30693C180.663 7.52343 180.123 7.68581 179.907 7.79406C179.799 7.90231 179.691 7.84819 179.583 7.63168C179.475 7.41518 179.637 7.19868 180.069 6.98217C180.501 6.76567 180.88 6.54918 181.204 6.33268C183.58 5.03367 186.659 3.84291 190.44 2.7604C194.221 1.67789 198.488 1.02838 203.242 0.811879C207.995 0.595381 213.073 1.02839 218.474 2.11089C223.876 3.08515 229.331 5.03367 234.841 7.95644C240.782 11.204 245.374 15.3175 248.615 20.297C251.963 25.2766 254.286 30.4185 255.583 35.7228C256.879 40.9188 257.419 46.0066 257.203 50.9861C256.987 55.8574 256.339 59.8086 255.258 62.8396ZM184.769 118.535C184.228 117.669 183.526 116.316 182.662 114.475C181.906 112.527 181.312 110.253 180.88 107.655C180.663 106.356 180.501 104.895 180.393 103.271C180.393 101.648 180.447 100.132 180.555 98.7247C180.663 97.2092 180.826 95.9643 181.042 94.9901C181.258 94.0158 181.582 93.5287 182.014 93.5287C182.122 93.5287 182.23 93.8535 182.338 94.503C182.554 95.0442 182.716 95.6937 182.824 96.4515C183.04 97.2092 183.148 97.967 183.148 98.7247C183.256 99.3742 183.31 99.8614 183.31 100.186C183.526 103.001 183.85 105.815 184.282 108.63C184.823 111.444 185.579 114.15 186.551 116.749C190.332 112.094 194.653 107.385 199.515 102.622C204.376 97.8587 209.129 93.0416 213.775 88.1703C218.42 83.1907 222.633 78.103 226.414 72.9069C230.303 67.7109 233.112 62.3525 234.841 56.8317C236.029 53.0429 236.245 49.0917 235.489 44.9782C234.841 40.8647 233.49 37.13 231.438 33.7743C229.385 30.5267 226.468 27.8205 222.687 25.6554C218.906 23.4904 214.747 21.9749 210.21 21.1089C208.373 20.7842 206.537 20.5135 204.7 20.297C202.972 20.0805 201.135 19.9723 199.191 19.9723C199.515 21.596 199.677 23.3822 199.677 25.3307C199.785 27.171 199.785 29.0112 199.677 30.8515C199.569 32.6917 199.407 34.4779 199.191 36.2099C198.975 37.8337 198.705 39.2951 198.38 40.5941C196.868 46.4396 195.086 52.3393 193.033 58.2931C190.98 64.1386 188.82 69.7676 186.551 75.1802C186.335 75.5049 186.011 76.0462 185.579 76.8039C185.255 77.4535 184.985 77.7782 184.769 77.7782C184.553 77.7782 184.445 77.3452 184.445 76.4792C184.445 75.6132 184.499 75.0178 184.607 74.6931C184.715 73.3941 184.931 71.8244 185.255 69.9842C185.579 68.0356 185.903 66.0871 186.227 64.1386C186.659 62.1901 187.091 60.2957 187.523 58.4554C187.956 56.5069 188.388 54.8832 188.82 53.5841C189.036 52.9346 189.414 51.365 189.954 48.8752C190.602 46.3855 191.25 43.5168 191.899 40.2693C192.547 37.0218 193.141 33.6119 193.681 30.0396C194.329 26.3591 194.761 23.0033 194.977 19.9723H193.033C192.817 24.1941 192.223 28.5241 191.25 32.9624C190.278 37.4007 189.09 41.8931 187.685 46.4396C186.389 50.8779 184.985 55.3703 183.472 59.9168C182.068 64.4634 180.826 69.0099 179.745 73.5564C179.529 74.5307 179.205 76.2086 178.773 78.5901C178.449 80.9716 178.179 83.6779 177.963 86.7089C177.747 89.6317 177.639 92.7709 177.639 96.1267C177.639 99.3742 177.855 102.514 178.287 105.545C178.827 108.467 179.583 111.119 180.555 113.501C181.528 115.882 182.932 117.56 184.769 118.535ZM238.568 61.5406C236.191 67.1696 232.896 72.5822 228.683 77.7782C224.578 82.9742 220.095 88.0079 215.233 92.8792C210.372 97.6422 205.348 102.189 200.163 106.519C195.086 110.849 190.44 114.962 186.227 118.859C185.363 119.617 184.228 119.725 182.824 119.184C181.528 118.535 180.555 117.777 179.907 116.911C177.639 113.88 175.964 110.47 174.884 106.681C173.804 102.892 173.155 98.9954 172.939 94.9901C172.723 90.8766 172.831 86.763 173.263 82.6495C173.804 78.4277 174.56 74.3683 175.532 70.4713C177.693 61.4865 180.123 52.8264 182.824 44.4911C185.633 36.0475 187.685 28.037 188.982 20.4594C183.148 21.1089 177.909 22.462 173.263 24.5188C168.726 26.4673 165.701 28.8488 164.189 31.6634C164.189 31.8799 164.135 31.9881 164.027 31.9881C163.811 31.9881 163.811 31.5551 164.027 30.6891C164.891 27.6581 166.998 25.0601 170.347 22.8951C173.695 20.6218 177.693 18.8898 182.338 17.699C186.983 16.4 191.953 15.6422 197.246 15.4257C202.648 15.2092 207.887 15.534 212.965 16.4C218.474 17.3743 223.227 19.4851 227.225 22.7327C231.33 25.8719 234.517 29.6066 236.785 33.9366C239.162 38.1584 240.512 42.7049 240.836 47.5762C241.268 52.4475 240.512 57.1023 238.568 61.5406ZM203.728 24.6812C205.024 27.4957 205.51 31.1762 205.186 35.7228C204.97 40.2693 204.376 45.0323 203.404 50.0119C202.432 54.8832 201.297 59.5921 200.001 64.1386C198.813 68.6851 197.894 72.3657 197.246 75.1802C195.95 80.3762 194.383 85.5723 192.547 90.7683C190.71 95.9643 189.198 100.511 188.01 104.408C187.469 105.923 187.091 106.681 186.875 106.681C186.551 106.681 186.389 106.411 186.389 105.869C186.389 105.22 186.389 104.624 186.389 104.083C186.713 96.0726 187.847 88.1703 189.792 80.3762C191.845 72.5822 194.059 64.6799 196.436 56.6693C197.84 51.798 199.191 46.7102 200.487 41.4059C201.783 36.1017 202.54 30.5267 202.756 24.6812C202.756 23.9234 202.864 23.4904 203.08 23.3822C203.188 23.3822 203.296 23.5446 203.404 23.8693C203.512 24.1941 203.62 24.4647 203.728 24.6812ZM223.011 92.0673C223.119 92.1756 222.903 92.6086 222.363 93.3663C221.823 94.1241 221.121 94.9901 220.257 95.9643C219.5 96.8303 218.69 97.7505 217.826 98.7247C217.07 99.5908 216.53 100.186 216.205 100.511C213.937 102.784 211.614 105.112 209.237 107.493C206.969 109.766 204.592 111.715 202.107 113.339L187.523 122.594C187.307 122.702 186.983 122.811 186.551 122.919C186.227 123.027 185.957 123.027 185.741 122.919C185.525 122.811 185.417 122.648 185.417 122.432C185.525 122.215 185.633 121.999 185.741 121.782C185.849 121.566 186.011 121.349 186.227 121.133C188.064 119.834 190.116 118.21 192.385 116.261C194.761 114.313 197.192 112.31 199.677 110.253C201.513 108.846 203.674 107.06 206.159 104.895C208.751 102.73 211.236 100.673 213.613 98.7247C216.097 96.7762 218.204 95.1525 219.932 93.8535C221.769 92.4462 222.795 91.8508 223.011 92.0673Z" fill="#0E488D"/>
<path d="M349.235 47.5762C349.235 52.5558 348.749 57.8601 347.776 63.4891C346.912 69.0099 345.508 74.4766 343.563 79.8891C341.727 85.3016 339.404 90.4436 336.595 95.3148C333.786 100.186 330.437 104.516 326.548 108.305C322.767 111.985 318.446 114.962 313.585 117.236C308.723 119.401 303.376 120.483 297.542 120.483C292.141 120.483 287.441 118.914 283.444 115.774C279.555 112.527 276.368 108.305 273.884 103.109C271.507 97.9129 269.832 91.9591 268.86 85.2475C267.996 78.536 267.888 71.7162 268.536 64.7881C269.184 57.8601 270.535 51.0403 272.587 44.3287C274.748 37.6172 277.665 31.6634 281.338 26.4673C285.011 21.2713 289.44 17.1036 294.625 13.9644C299.811 10.7168 305.752 9.09307 312.45 9.09307C317.744 9.09307 322.173 10.2838 325.738 12.6653C329.303 15.0469 332.166 18.0779 334.327 21.7584C336.595 25.4389 338.216 29.5525 339.188 34.099C340.16 38.5373 340.646 42.8673 340.646 47.0891C340.646 52.1769 340.214 57.1564 339.35 62.0277C338.486 66.7907 336.973 71.4455 334.813 75.9921C334.164 77.5076 333.786 78.0488 333.678 77.6158C333.678 77.0746 333.786 76.3168 334.002 75.3426C334.759 71.4455 335.407 67.6026 335.947 63.8139C336.595 59.9168 336.919 55.9657 336.919 51.9604C336.919 48.1716 336.541 44.0581 335.785 39.6198C335.029 35.1815 333.732 31.068 331.896 27.2792C330.059 23.4904 327.521 20.3512 324.28 17.8614C321.039 15.2634 316.934 13.9644 311.964 13.9644C307.751 13.9644 303.808 14.7762 300.135 16.4C296.462 18.0238 293.113 20.1888 290.088 22.8951C287.171 25.6013 284.579 28.7947 282.31 32.4752C280.041 36.0475 278.097 39.7822 276.476 43.6792C275.18 46.9267 274.1 51.0403 273.235 56.0198C272.371 60.8911 271.885 66.033 271.777 71.4455C271.669 76.8581 271.993 82.3247 272.749 87.8455C273.505 93.3663 274.91 98.2917 276.962 102.622C279.015 106.952 281.716 110.524 285.065 113.339C288.414 116.045 292.627 117.398 297.704 117.398C302.998 117.398 308.021 115.937 312.774 113.014C317.528 109.983 321.795 106.248 325.576 101.81C329.465 97.2634 332.76 92.4462 335.461 87.3584C338.162 82.1624 340.106 77.3452 341.294 72.9069C342.375 69.0099 343.185 64.6799 343.725 59.9168C344.373 55.0455 344.535 50.1743 344.211 45.303C343.995 40.3234 343.239 35.5063 341.943 30.8515C340.754 26.1967 338.918 22.0832 336.433 18.5109C333.948 14.8304 330.762 11.9076 326.872 9.74257C323.091 7.46931 318.446 6.33268 312.937 6.33268C304.726 6.33268 297.65 8.38944 291.709 12.503C285.767 16.6165 280.851 21.8125 276.962 28.0911C273.181 34.3696 270.373 41.2977 268.536 48.8752C266.7 56.4528 265.781 63.7056 265.781 70.6337C265.781 73.8812 265.997 77.1828 266.429 80.5386C266.862 83.7861 267.186 86.4924 267.402 88.6574C267.51 89.5234 267.402 90.0106 267.078 90.1188C266.862 90.1188 266.591 89.6858 266.267 88.8198C265.835 87.4125 265.457 85.7888 265.133 83.9485C264.809 82 264.485 79.9973 264.161 77.9406C263.945 75.7756 263.729 73.6647 263.513 71.6079C263.405 69.4429 263.351 67.4403 263.351 65.6C263.351 58.0224 264.323 50.4449 266.267 42.8673C268.32 35.1815 271.399 28.3076 275.504 22.2455C279.609 16.1835 284.795 11.2581 291.06 7.46931C297.434 3.57228 304.942 1.62376 313.585 1.62376C320.067 1.62376 325.576 3.08515 330.113 6.00792C334.651 8.93069 338.324 12.6653 341.132 17.2119C344.049 21.6502 346.102 26.5756 347.29 31.9881C348.587 37.4007 349.235 42.5967 349.235 47.5762ZM334.002 49.0376C334.002 53.6924 333.462 58.6178 332.382 63.8139C331.302 68.9016 329.681 73.9353 327.521 78.9148C325.468 83.7861 322.929 88.3868 319.904 92.7168C316.88 96.9386 313.423 100.565 309.534 103.596C307.697 105.003 305.698 106.194 303.538 107.168C301.485 108.143 299.217 108.63 296.732 108.63C294.571 108.63 292.735 108.197 291.222 107.331C289.818 106.356 288.576 105.057 287.495 103.434C286.631 102.243 286.361 101.648 286.685 101.648C287.009 101.648 287.603 102.081 288.468 102.947C289.44 103.813 290.412 104.57 291.384 105.22C292.357 105.869 293.653 106.194 295.274 106.194C298.298 106.194 301.161 105.166 303.862 103.109C306.671 100.944 308.993 98.7789 310.83 96.6139C313.639 93.5828 316.123 90.2271 318.284 86.5465C320.445 82.7577 322.227 78.8607 323.631 74.8554C325.144 70.7419 326.278 66.6284 327.034 62.5148C327.791 58.2931 328.169 54.1254 328.169 50.0119C328.169 47.3056 327.899 44.3287 327.359 41.0812C326.926 37.8337 326.008 34.8026 324.604 31.9881C323.307 29.0653 321.471 26.6297 319.094 24.6812C316.826 22.7327 313.855 21.7584 310.182 21.7584C306.185 21.7584 302.62 22.6244 299.487 24.3564C296.354 26.0884 293.545 28.3076 291.06 31.0139C288.576 33.6119 286.307 36.5888 284.254 39.9446C282.31 43.1921 280.473 46.3855 278.745 49.5248C278.421 50.1743 278.151 50.5531 277.935 50.6614C277.827 50.7696 277.773 50.7155 277.773 50.499C277.665 50.2825 277.665 49.9578 277.773 49.5248C278.961 45.5195 280.581 41.5683 282.634 37.6713C284.687 33.7743 287.117 30.3102 289.926 27.2792C292.843 24.2482 296.084 21.8125 299.649 19.9723C303.214 18.0238 307.103 17.0495 311.316 17.0495C315.313 17.0495 318.77 18.132 321.687 20.297C324.604 22.462 326.926 25.1683 328.655 28.4158C330.491 31.5551 331.842 35.0191 332.706 38.8079C333.57 42.4885 334.002 45.8983 334.002 49.0376ZM304.672 112.527C302.187 113.826 299.541 114.475 296.732 114.475C292.843 114.475 289.494 113.393 286.685 111.228C283.876 109.063 281.5 106.411 279.555 103.271C277.719 100.132 276.368 96.7221 275.504 93.0416C274.64 89.361 274.208 85.9511 274.208 82.8119C274.208 82.1624 274.262 81.1881 274.37 79.8891C274.478 78.5901 274.586 77.3452 274.694 76.1545C274.91 74.8554 275.126 73.7188 275.342 72.7446C275.666 71.7703 276.044 71.2832 276.476 71.2832C276.908 71.2832 277.07 72.1492 276.962 73.8812C276.962 75.5049 277.07 77.8323 277.286 80.8634C277.395 83.2449 277.881 86.2218 278.745 89.7941C279.609 93.3663 280.851 96.8304 282.472 100.186C284.092 103.434 286.091 106.248 288.468 108.63C290.844 111.011 293.599 112.202 296.732 112.202C299.433 112.202 301.863 111.985 304.024 111.552C305.104 111.336 305.915 111.228 306.455 111.228C306.995 111.228 306.401 111.661 304.672 112.527Z" fill="#0E488D"/>
<path d="M373.068 60.5663C373.176 59.5921 373.5 58.4554 374.04 57.1564C374.58 55.7492 375.283 54.4502 376.147 53.2594C377.119 51.9604 378.254 50.8238 379.55 49.8495C380.846 48.767 382.305 48.0634 383.925 47.7386C387.382 47.0891 390.245 47.3056 392.514 48.3881C394.782 49.4706 396.511 50.7155 397.699 52.1228C398.131 52.7723 398.293 53.1511 398.185 53.2594C397.969 53.4759 397.591 53.4218 397.051 53.097C396.403 52.664 395.322 52.2851 393.81 51.9604C392.405 51.6356 390.839 51.5815 389.111 51.798C387.49 51.9063 385.87 52.3934 384.249 53.2594C382.737 54.1254 381.494 55.5327 380.522 57.4812C379.658 59.3214 379.064 61.2158 378.74 63.1643C378.416 65.1129 378.2 66.9531 378.091 68.6851C378.091 70.3089 378.145 71.7162 378.254 72.9069C378.362 74.0977 378.416 74.9096 378.416 75.3426C378.632 76.5333 378.794 78.0488 378.902 79.8891C379.118 81.6211 379.226 83.4072 379.226 85.2475C379.226 87.0878 379.172 88.928 379.064 90.7683C378.956 92.5003 378.74 94.0158 378.416 95.3148C378.308 95.6396 378.145 96.1808 377.929 96.9386C377.821 97.6964 377.659 98.0752 377.443 98.0752C376.903 98.0752 376.633 97.6964 376.633 96.9386C376.633 96.1808 376.633 95.6396 376.633 95.3148C376.417 92.6086 376.039 89.9023 375.499 87.196C374.959 84.3815 374.418 81.5129 373.878 78.5901C373.446 75.6673 373.122 72.7445 372.906 69.8218C372.69 66.7908 372.744 63.7056 373.068 60.5663ZM367.396 92.7168C367.504 90.5518 367.288 87.5208 366.748 83.6238C366.316 79.6185 366.154 75.0178 366.262 69.8218C366.37 67.1155 366.64 64.3551 367.072 61.5406C367.504 58.6178 368.531 55.7492 370.151 52.9347C371.88 49.9036 374.04 47.6845 376.633 46.2772C379.334 44.7617 381.656 44.0581 383.601 44.1663C383.925 44.1663 384.249 44.1663 384.573 44.1663C384.897 44.1663 385.059 44.2205 385.059 44.3287C385.059 44.5452 385.005 44.6535 384.897 44.6535C384.789 44.5452 384.411 44.5993 383.763 44.8158C381.819 45.3571 380.09 46.2772 378.578 47.5762C377.065 48.767 375.769 50.1743 374.689 51.798C373.608 53.4218 372.744 55.0997 372.096 56.8317C371.448 58.5637 371.07 60.1333 370.961 61.5406C370.313 67.4944 370.367 72.6904 371.124 77.1287C371.664 80.701 372.096 84.4356 372.42 88.3327C372.744 92.1214 372.582 95.6396 371.934 98.8871C371.394 102.026 370.259 104.679 368.531 106.844C366.91 108.9 364.372 110.037 360.915 110.253C360.591 110.253 360.158 110.253 359.618 110.253C359.186 110.145 358.97 109.983 358.97 109.766C358.97 109.55 359.456 109.171 360.428 108.63C363.237 107.331 365.074 105.436 365.938 102.947C366.802 100.457 367.288 97.0469 367.396 92.7168ZM350.22 111.877C351.732 114.259 354.109 116.045 357.35 117.236C360.699 118.318 364.642 118.21 369.179 116.911C371.448 116.261 373.446 115.125 375.175 113.501C376.903 111.877 378.308 110.091 379.388 108.143C380.576 106.086 381.44 103.975 381.981 101.81C382.629 99.6449 383.007 97.6422 383.115 95.802C383.223 92.7709 383.115 89.7941 382.791 86.8713C382.575 83.9485 382.251 81.134 381.819 78.4277C381.494 75.6132 381.17 72.9069 380.846 70.3089C380.63 67.7109 380.63 65.167 380.846 62.6772C381.062 59.9709 381.819 57.9142 383.115 56.5069C384.411 55.0997 385.978 54.2337 387.814 53.9089C389.759 53.4759 391.757 53.5842 393.81 54.2337C395.862 54.8832 397.753 55.9116 399.481 57.3188C399.914 57.5353 400.076 57.8059 399.968 58.1307C399.968 58.3472 399.86 58.4013 399.644 58.2931C399.427 58.1848 399.211 58.0766 398.995 57.9683C394.998 56.6693 391.865 56.2904 389.597 56.8317C387.436 57.3729 386.248 59.3214 386.032 62.6772C385.816 66.5742 386.086 71.1749 386.842 76.4792C387.706 81.6752 388.03 87.4667 387.814 93.8535C387.922 96.0185 387.652 98.5082 387.004 101.323C386.464 104.137 385.492 106.898 384.087 109.604C382.791 112.202 381.008 114.529 378.74 116.586C376.579 118.643 373.986 119.942 370.961 120.483C365.236 121.349 360.645 121.024 357.188 119.509C353.839 117.993 351.408 115.666 349.896 112.527C349.679 111.877 349.571 111.498 349.571 111.39H349.733C349.733 111.39 349.896 111.552 350.22 111.877ZM357.35 111.877C359.402 112.418 361.887 112.635 364.804 112.527C365.776 112.418 366.964 112.148 368.369 111.715C369.773 111.282 370.529 111.174 370.637 111.39C370.961 111.823 370.637 112.364 369.665 113.014C368.693 113.663 367.45 114.259 365.938 114.8C364.426 115.233 362.859 115.558 361.239 115.774C359.618 115.882 358.268 115.72 357.188 115.287C355.135 114.421 353.677 113.501 352.812 112.527C351.84 111.444 350.976 110.145 350.22 108.63L349.896 107.98C349.679 107.547 349.625 107.277 349.733 107.168C349.842 107.06 350.004 107.06 350.22 107.168C350.328 107.277 350.382 107.385 350.382 107.493C351.678 108.684 352.758 109.604 353.623 110.253C354.595 110.795 355.837 111.336 357.35 111.877Z" fill="#0E488D"/>
</svg>
